<mxfile host="app.diagrams.net" modified="2023-08-29T02:01:45.987Z" agent="Mozilla/5.0 (Windows NT 10.0; Win64; x64) AppleWebKit/537.36 (KHTML, like Gecko) Chrome/116.0.0.0 Safari/537.36" version="21.6.9" etag="xHR-pt3bEZRJ7ZvCB2FQ" type="github">
  <diagram name="Page-1" id="cV0mXlM9j1voREs1f-9V">
    <mxGraphModel>
      <root>
        <mxCell id="0" />
        <mxCell id="1" parent="0" />
      </root>
    </mxGraphModel>
  </diagram>
</mxfile>
